<?xml version="1.0" encoding="utf-8"?>
<!-- Generator: Adobe Illustrator 24.3.0, SVG Export Plug-In . SVG Version: 6.00 Build 0)  -->
<svg version="1.1" id="Capa_1" xmlns="http://www.w3.org/2000/svg" xmlns:xlink="http://www.w3.org/1999/xlink" x="0px" y="0px"
	 viewBox="0 0 118.3 80.4" style="enable-background:new 0 0 118.3 80.4;" xml:space="preserve">
<style type="text/css">
	.st0{fill:#A19FA0;}
	.st1{fill:#001943;}
	.st2{fill:#CB2D30;}
	.st3{fill:#002856;}
</style>
<path class="st0" d="M88.1,48.1c-0.6,0.1-1.1,0-1.6-0.3L71.6,40c-0.4-0.2-0.9-0.3-1.4-0.3c-0.5,0-0.9,0.1-1.3,0.3l-2.7,1.5
	c-0.4,0.2-0.7,0.3-1.2,0.3c-0.5,0-1-0.2-1.4-0.5l-8.2-6c-0.5-0.3-1.1-0.5-1.7-0.5l0,0c-0.6,0-1.2,0.2-1.7,0.6l-5.6,4.2
	c-0.3,0.3-0.7,0.4-1.2,0.5c-0.4,0-0.8,0-1.2-0.2l-2.5-1c-0.5-0.2-1-0.3-1.5-0.2c-0.5,0.1-1,0.3-1.3,0.6L32,44.4
	c-0.3,0.2-0.6,0.4-1,0.5c-0.4,0.1-0.9,0-1.3-0.1l-8.4-2.8c-0.3-0.1-0.7-0.2-1-0.2c-0.4,0-0.7,0.1-1,0.2L0,50.6v-1.2L18.8,41
	c0.5-0.2,1-0.3,1.5-0.3c0.5,0,1,0.1,1.5,0.2l8.4,2.8c0.2,0.1,0.5,0.1,0.7,0.1c0.2,0,0.4-0.1,0.5-0.2l6.8-5.2
	c0.6-0.4,1.2-0.7,1.9-0.8c0.7-0.1,1.4,0,2.1,0.3l2.5,1c0.2,0.1,0.3,0.1,0.5,0.1h0.1c0.2,0,0.4-0.1,0.6-0.2l5.5-4.2
	c0.7-0.5,1.5-0.8,2.4-0.8c0.8,0,1.6,0.3,2.3,0.8l8.2,6c0.2,0.2,0.5,0.3,0.8,0.3c0.2,0,0.4-0.1,0.6-0.2l2.7-1.5
	c0.6-0.3,1.2-0.4,1.9-0.5c0.7,0,1.3,0.2,1.9,0.5L87,46.9c0.2,0.1,0.5,0.2,0.7,0.1c0.1,0.2,0.2,0.5,0.2,0.7L88.1,48.1z"/>
<path class="st1" d="M95.3,45.9l-7.2,2.1l-0.1-0.4c-0.1-0.2-0.2-0.5-0.2-0.7c-0.3-0.9-0.7-1.8-1-2.7c-11-27.1-41.8-40.1-68.9-29.2
	c-6.6,2.7-12.6,6.6-17.6,11.6l0,0c0,0-0.1,0-0.1,0c-0.1,0-0.1,0-0.2-0.1c0,0,0,0,0,0c0,0,0-0.1,0-0.1l0,0C20.2,3.3,55.4,0.8,78.7,21
	C86.4,27.7,92.1,36.3,95.3,45.9L95.3,45.9z"/>
<path class="st2" d="M114.1,52v0.6l-12.6-8.5l-5.3,1.6c-9.8-30-42.1-46.4-72.1-36.5c-7.7,2.5-14.8,6.7-20.8,12.2c0,0-0.1,0-0.1,0
	c-0.1,0-0.2-0.1-0.2-0.2c0,0,0,0,0,0c0,0,0-0.1,0-0.1C27-5.3,67.9-7.2,94.3,16.8c7.4,6.7,13.1,15.1,16.7,24.4
	C112.4,44.7,113.4,48.3,114.1,52z"/>
<path class="st1" d="M14.6,73v2.1c-3.6,0.1-7.2-0.7-10.3-2.5C1.5,71,0,69,0,66.6s1.4-4.3,4.3-6c3.2-1.7,6.7-2.6,10.3-2.5v2.1
	c-2.6-0.1-5.1,0.6-7.4,1.9c-2,1.2-3,2.7-3,4.5s1,3.3,3,4.5C9.5,72.4,12,73.1,14.6,73z"/>
<path class="st1" d="M40.5,73v2.1c-3.6,0.1-7.2-0.8-10.3-2.5C27.4,71,26,69,26,66.6s1.4-4.3,4.3-6c3.2-1.7,6.7-2.6,10.3-2.5v2.1
	c-2.6-0.1-5.1,0.6-7.4,1.9c-2,1.2-3,2.7-3,4.5c0,1.8,1,3.3,3,4.5C35.4,72.4,38,73.1,40.5,73z"/>
<path class="st1" d="M51.9,58.2H56v17h-4.1V58.2z"/>
<path class="st1" d="M77.8,62.4l6.2-4.2h4.2v17H84V61.3l-6.2,4.2l-6.2-4.2v13.8h-4.1v-17h4.2L77.8,62.4z"/>
<path class="st1" d="M112,61.3v7.4h2.1v2.1H112v4.2h-4.2v-4.2h-4.2v4.2h-4.2v-4.2h-2.1v-2.1h2.1v-7.4c0-0.9,0.6-1.6,1.8-2.2
	c2.8-1.2,6-1.2,8.8,0C111.4,59.7,112,60.5,112,61.3z M103.7,61.3v7.4h4.2v-7.4c0-0.3-0.2-0.5-0.6-0.8c-0.9-0.4-2-0.4-2.9,0
	C103.9,60.8,103.7,61,103.7,61.3L103.7,61.3z"/>
<path class="st3" d="M116,71.4c0.3,0,0.5,0.1,0.7,0.2c0.2,0.2,0.3,0.4,0.3,0.6c0,0.3-0.1,0.5-0.3,0.7c-0.1,0.1-0.2,0.1-0.3,0.1
	l0.9,1.2h-0.7l-0.8-1.2h-0.1v1.2h-0.6v-2.9H116z M115.7,72.7h0.2c0.1,0,0.6,0,0.6-0.4s-0.4-0.4-0.5-0.4h-0.2L115.7,72.7z"/>
<path class="st3" d="M116.1,75.1c-1.2,0-2.3-1-2.3-2.3c0-1.2,1-2.3,2.3-2.3c1.2,0,2.3,1,2.3,2.3S117.3,75.1,116.1,75.1
	C116.1,75.1,116.1,75.1,116.1,75.1z M116.1,71c-1,0-1.9,0.9-1.9,1.9c0,1,0.9,1.9,1.9,1.9c1,0,1.9-0.9,1.9-1.9
	C117.9,71.8,117.1,71,116.1,71L116.1,71z"/>
</svg>
